<mxfile host="65bd71144e">
    <diagram id="6b7KEzJsmIcZ2QdaATh2" name="Page-1">
        <mxGraphModel dx="613" dy="653" grid="1" gridSize="10" guides="1" tooltips="1" connect="1" arrows="1" fold="1" page="1" pageScale="1" pageWidth="850" pageHeight="1100" math="0" shadow="0">
            <root>
                <mxCell id="0"/>
                <mxCell id="1" parent="0"/>
                <mxCell id="26" value="" style="rounded=0;whiteSpace=wrap;html=1;fontFamily=Courier New;fontSize=10;" vertex="1" parent="1">
                    <mxGeometry x="100" y="310" width="490" height="240" as="geometry"/>
                </mxCell>
                <mxCell id="7" value="&lt;br&gt;&lt;br&gt;&lt;br&gt;&lt;br&gt;&lt;br&gt;&lt;br&gt;stderr.log" style="shape=cylinder3;whiteSpace=wrap;html=1;boundedLbl=1;backgroundOutline=1;size=15;fontSize=10;fontFamily=Courier New;fillColor=#f8cecc;strokeColor=#b85450;" vertex="1" parent="1">
                    <mxGeometry x="470" y="450" width="50" height="70" as="geometry"/>
                </mxCell>
                <mxCell id="21" style="edgeStyle=none;rounded=0;html=1;fontFamily=Courier New;fontSize=10;" edge="1" parent="1" source="12" target="18">
                    <mxGeometry relative="1" as="geometry"/>
                </mxCell>
                <mxCell id="12" value="log.info(...)" style="rounded=1;whiteSpace=wrap;html=1;fontSize=10;fontFamily=Courier New;" vertex="1" parent="1">
                    <mxGeometry x="120" y="400" width="100" height="30" as="geometry"/>
                </mxCell>
                <mxCell id="13" value="console" style="sketch=0;points=[[0,0,0],[0.25,0,0],[0.5,0,0],[0.75,0,0],[1,0,0],[0,1,0],[0.25,1,0],[0.5,1,0],[0.75,1,0],[1,1,0],[0,0.25,0],[0,0.5,0],[0,0.75,0],[1,0.25,0],[1,0.5,0],[1,0.75,0]];outlineConnect=0;gradientDirection=north;dashed=0;verticalLabelPosition=bottom;verticalAlign=top;align=center;html=1;fontSize=10;fontStyle=0;aspect=fixed;shape=mxgraph.aws4.resourceIcon;resIcon=mxgraph.aws4.command_line_interface;fontFamily=Courier New;" vertex="1" parent="1">
                    <mxGeometry x="520" y="385" width="60" height="60" as="geometry"/>
                </mxCell>
                <mxCell id="20" style="edgeStyle=none;rounded=0;html=1;fontFamily=Courier New;fontSize=10;" edge="1" parent="1" source="14" target="18">
                    <mxGeometry relative="1" as="geometry"/>
                </mxCell>
                <mxCell id="14" value="log.warning(...)" style="rounded=1;whiteSpace=wrap;html=1;fontSize=10;fontFamily=Courier New;" vertex="1" parent="1">
                    <mxGeometry x="120" y="445" width="100" height="25" as="geometry"/>
                </mxCell>
                <mxCell id="19" style="edgeStyle=none;rounded=0;html=1;fontFamily=Courier New;fontSize=10;dashed=1;fillColor=#f8cecc;strokeColor=#b85450;" edge="1" parent="1" source="15">
                    <mxGeometry relative="1" as="geometry">
                        <mxPoint x="280" y="470" as="targetPoint"/>
                    </mxGeometry>
                </mxCell>
                <mxCell id="15" value="log.error(...)" style="rounded=1;whiteSpace=wrap;html=1;fontSize=10;fontFamily=Courier New;" vertex="1" parent="1">
                    <mxGeometry x="120" y="485" width="100" height="30" as="geometry"/>
                </mxCell>
                <mxCell id="17" value="&lt;br&gt;&lt;br&gt;&lt;br&gt;&lt;br&gt;&lt;br&gt;&lt;br&gt;stdout.log" style="shape=cylinder3;whiteSpace=wrap;html=1;boundedLbl=1;backgroundOutline=1;size=15;fontSize=10;fontFamily=Courier New;fillColor=#fff2cc;strokeColor=#d6b656;" vertex="1" parent="1">
                    <mxGeometry x="430" y="320" width="50" height="70" as="geometry"/>
                </mxCell>
                <mxCell id="22" style="edgeStyle=none;rounded=0;html=1;entryX=0;entryY=0.5;entryDx=0;entryDy=0;entryPerimeter=0;fontFamily=Courier New;fontSize=10;dashed=1;fillColor=#f8cecc;strokeColor=#b85450;" edge="1" parent="1" source="18" target="7">
                    <mxGeometry relative="1" as="geometry">
                        <mxPoint x="410" y="480" as="sourcePoint"/>
                    </mxGeometry>
                </mxCell>
                <mxCell id="23" style="edgeStyle=none;rounded=0;html=1;entryX=0;entryY=1;entryDx=0;entryDy=-15;entryPerimeter=0;fontFamily=Courier New;fontSize=10;" edge="1" parent="1" source="18" target="17">
                    <mxGeometry relative="1" as="geometry"/>
                </mxCell>
                <mxCell id="24" style="edgeStyle=none;rounded=0;html=1;entryX=0;entryY=0.5;entryDx=0;entryDy=0;entryPerimeter=0;fontFamily=Courier New;fontSize=10;" edge="1" parent="1" source="18" target="13">
                    <mxGeometry relative="1" as="geometry"/>
                </mxCell>
                <mxCell id="18" value="log_pkg.vhd" style="ellipse;shape=cloud;whiteSpace=wrap;html=1;fontFamily=Courier New;fontSize=10;fillColor=#f5f5f5;fontColor=#333333;strokeColor=#666666;" vertex="1" parent="1">
                    <mxGeometry x="280" y="417.5" width="120" height="80" as="geometry"/>
                </mxCell>
            </root>
        </mxGraphModel>
    </diagram>
</mxfile>